<svg class="diagram-root" style="background: #f5f6f6" xmlns="http://www.w3.org/2000/svg" xmlns:xlink="http://www.w3.org/1999/xlink"><style>.diagram-root { font-family: "Helvetica Neue", sans-serif; font-size: 12px; } .t { overflow: visible; } .t-bg { y: 40; fill: #fff;   } .th { fill: #005aa0;   } .tht { fill: #fff; font-size: 14px;  } .tf { fill: #323c46; overflow: visible; } .tf.pk { fill: #005aa0; font-weight: bold; } .tf.fk { font-weight: bold; } .ty { fill: #adb1b5; font-weight: normal; text-anchor: end; } .r { fill: transparent; stroke: #c3c3c3; stroke-width: 1; } .l { stroke: 1; } .i { fill: #c2c7ce; stroke: #c2c7ce; } .i.ix { fill: #afb3b6; stroke: #000; } .fa { fill: transparent; overflow: visible; } .fa .bg.hover { fill: #f7f7f7; } .c { cy: 12; r: 4; stroke: #d2d2dc; fill: #d2d2dc; } .hr { fill: transparent; stroke: #323c46; stroke-opacity: 0.035; stroke-width: 13; } .dc { stroke: #fa5a3c; fill: #fa5a3c; } .x { stroke: white; stroke-width: 1; } .hl .th { fill: #1b9bff; } .hl .tht {  } .fhl .bg { fill: #e7f4ff; } .fhls .bg {  } .r.hl { stroke: #1b9bff; } .dim { opacity: 0.25; }</style><g class="drawing-wrapper" transform="translate(7, -62) scale(1,1)"><g class="rs"><path d="M 378 347 m -1, 0 a 1,1 0 1,0 2,0 a 1,1 0 1,0 -2,0 M 378 347 m -0.5, 0 a 0.5,0.5 0 1,0 1,0 a 0.5,0.5 0 1,0 -1,0  M378 347 L378 347 366 347 M 378 353 m -1, 0 a 1,1 0 1,0 2,0 a 1,1 0 1,0 -2,0 M 378 353 m -0.5, 0 a 0.5,0.5 0 1,0 1,0 a 0.5,0.5 0 1,0 -1,0  M378 353 L378 353 371 347 378 341 M 378 341 m -1, 0 a 1,1 0 1,0 2,0 a 1,1 0 1,0 -2,0 M 378 341 m -0.5, 0 a 0.5,0.5 0 1,0 1,0 a 0.5,0.5 0 1,0 -1,0  M366 347 Q 324.38 347, 282.75 264.5 T 199.5 182 M 187.5 182 m -1, 0 a 1,1 0 1,0 2,0 a 1,1 0 1,0 -2,0 M 187.5 182 m -0.5, 0 a 0.5,0.5 0 1,0 1,0 a 0.5,0.5 0 1,0 -1,0  M187.5 182 L187.5 182 199.5 182 M193.5 188 L193.5 188 193.5 176" id="h986381747" class="r"></path><path d="M 380 489 m -1, 0 a 1,1 0 1,0 2,0 a 1,1 0 1,0 -2,0 M 380 489 m -0.5, 0 a 0.5,0.5 0 1,0 1,0 a 0.5,0.5 0 1,0 -1,0  M380 489 L380 489 368 489 M 380 495 m -1, 0 a 1,1 0 1,0 2,0 a 1,1 0 1,0 -2,0 M 380 495 m -0.5, 0 a 0.5,0.5 0 1,0 1,0 a 0.5,0.5 0 1,0 -1,0  M380 495 L380 495 373 489 380 483 M 380 483 m -1, 0 a 1,1 0 1,0 2,0 a 1,1 0 1,0 -2,0 M 380 483 m -0.5, 0 a 0.5,0.5 0 1,0 1,0 a 0.5,0.5 0 1,0 -1,0  M368 489 Q 325.88 489, 283.75 335.5 T 199.5 182 M 187.5 182 m -1, 0 a 1,1 0 1,0 2,0 a 1,1 0 1,0 -2,0 M 187.5 182 m -0.5, 0 a 0.5,0.5 0 1,0 1,0 a 0.5,0.5 0 1,0 -1,0  M187.5 182 L187.5 182 199.5 182 M193.5 188 L193.5 188 193.5 176" id="h474132862" class="r"></path><path d="M 373 149 m -1, 0 a 1,1 0 1,0 2,0 a 1,1 0 1,0 -2,0 M 373 149 m -0.5, 0 a 0.5,0.5 0 1,0 1,0 a 0.5,0.5 0 1,0 -1,0  M373 149 L373 149 361 149 M 373 155 m -1, 0 a 1,1 0 1,0 2,0 a 1,1 0 1,0 -2,0 M 373 155 m -0.5, 0 a 0.5,0.5 0 1,0 1,0 a 0.5,0.5 0 1,0 -1,0  M373 155 L373 155 366 149 373 143 M 373 143 m -1, 0 a 1,1 0 1,0 2,0 a 1,1 0 1,0 -2,0 M 373 143 m -0.5, 0 a 0.5,0.5 0 1,0 1,0 a 0.5,0.5 0 1,0 -1,0  M361 149 Q 320.63 149, 280.25 165.5 T 199.5 182 M 187.5 182 m -1, 0 a 1,1 0 1,0 2,0 a 1,1 0 1,0 -2,0 M 187.5 182 m -0.5, 0 a 0.5,0.5 0 1,0 1,0 a 0.5,0.5 0 1,0 -1,0  M187.5 182 L187.5 182 199.5 182 M193.5 188 L193.5 188 193.5 176" id="h2741883605" class="r"></path><path d="M 373 174 m -1, 0 a 1,1 0 1,0 2,0 a 1,1 0 1,0 -2,0 M 373 174 m -0.5, 0 a 0.5,0.5 0 1,0 1,0 a 0.5,0.5 0 1,0 -1,0  M373 174 L373 174 361 174 M 373 180 m -1, 0 a 1,1 0 1,0 2,0 a 1,1 0 1,0 -2,0 M 373 180 m -0.5, 0 a 0.5,0.5 0 1,0 1,0 a 0.5,0.5 0 1,0 -1,0  M373 180 L373 180 366 174 373 168 M 373 168 m -1, 0 a 1,1 0 1,0 2,0 a 1,1 0 1,0 -2,0 M 373 168 m -0.5, 0 a 0.5,0.5 0 1,0 1,0 a 0.5,0.5 0 1,0 -1,0  M361 174 Q 320.63 174, 280.25 165.5 T 199.5 157 M 187.5 157 m -1, 0 a 1,1 0 1,0 2,0 a 1,1 0 1,0 -2,0 M 187.5 157 m -0.5, 0 a 0.5,0.5 0 1,0 1,0 a 0.5,0.5 0 1,0 -1,0  M187.5 157 L187.5 157 199.5 157 M193.5 163 L193.5 163 193.5 151" id="h48929248" class="r"></path></g><g class="hrs"></g><g class="ts"><svg width="172.5" height="225" x="15" y="100" id="h3953910559" class="t"><rect height="40" width="172.5" class="th"></rect><text x="13" y="25" class="tht">HAPPINESS</text><rect height="185" width="172.5" class="t-bg" y="40"></rect><text x="13" y="61" class="tf pk">year<tspan x="159.5" class="ty">INT</tspan></text><path d="M7,14A2,2 0 0,1 5,12A2,2 0 0,1 7,10A2,2 0 0,1 9,12A2,2 0 0,1 7,14M12.65,10C11.83,7.67 9.61,6 7, 6A6, 6 0 0, 0 1, 12A6, 6 0 0, 0 7, 18C9.61, 18 11.83, 16.33 12.65, 14H17V18H21V14H23V10H12.65Z" class="i pk" transform="translate(120.169921875, 48) scale(0.65)"></path><text x="13" y="86" class="tf fk">Country<tspan x="159.5" class="ty">VARCHAR</tspan></text><text x="13" y="111" class="tf">Score<tspan x="159.5" class="ty">FLOAT</tspan></text><text x="13" y="136" class="tf">GDP_per_capita<tspan x="159.5" class="ty">FLOAT</tspan></text><text x="13" y="161" class="tf">Social_support<tspan x="159.5" class="ty">FLOAT</tspan></text><text x="13" y="186" class="tf">Life_expectancy<tspan x="159.5" class="ty">FLOAT</tspan></text><text x="13" y="211" class="tf">Freedom<tspan x="159.5" class="ty">FLOAT</tspan></text></svg><svg width="150.5" height="100" x="378" y="290" id="h3197391339" class="t"><rect height="40" width="150.5" class="th"></rect><text x="13" y="25" class="tht">SUICIDE_RATE</text><rect height="60" width="150.5" class="t-bg" y="40"></rect><text x="13" y="61" class="tf fk">Country<tspan x="137.5" class="ty">VARCHAR</tspan></text><text x="13" y="86" class="tf">Suicide_rate<tspan x="137.5" class="ty">FLOAT</tspan></text></svg><svg width="186.76" height="100" x="380" y="432" id="h646570171" class="t"><rect height="40" width="186.76" class="th"></rect><text x="13" y="25" class="tht">POPULATION_GROWTH</text><rect height="60" width="186.76" class="t-bg" y="40"></rect><text x="13" y="61" class="tf fk">Country<tspan x="173.76" class="ty">VARCHAR</tspan></text><text x="13" y="86" class="tf">Population_growth<tspan x="173.76" class="ty">FLOAT</tspan></text></svg><svg width="184.51" height="175" x="373" y="92" id="h6409635" class="t"><rect height="40" width="184.51" class="th"></rect><text x="13" y="25" class="tht">INDIA_GDP</text><rect height="135" width="184.51" class="t-bg" y="40"></rect><text x="13" y="61" class="tf fk">Country<tspan x="171.51" class="ty">VARCHAR</tspan></text><text x="13" y="86" class="tf fk">Year<tspan x="171.51" class="ty">INT</tspan></text><text x="13" y="111" class="tf">GDP_Billion<tspan x="171.51" class="ty">FLOAT</tspan></text><text x="13" y="136" class="tf">Per_Capita-rupees<tspan x="171.51" class="ty">FLOAT</tspan></text><text x="13" y="161" class="tf">Growth<tspan x="171.51" class="ty">FLOAT</tspan></text></svg></g></g><text class="qdbd-link" x="10" y="20">www.quickdatabasediagrams.com</text></svg>